<mxfile host="app.diagrams.net" modified="2023-09-08T07:02:37.357Z" agent="Mozilla/5.0 (Windows NT 10.0; Win64; x64) AppleWebKit/537.36 (KHTML, like Gecko) Chrome/116.0.0.0 Safari/537.36" etag="kdGMayE7O8d0_-aMoBIP" version="21.7.2" type="gitlab">
  <diagram name="Page-1" id="939bd31Qk-3ooGTqOP1q">
    <mxGraphModel dx="1050" dy="574" grid="1" gridSize="10" guides="1" tooltips="1" connect="1" arrows="1" fold="1" page="1" pageScale="1" pageWidth="850" pageHeight="1100" math="0" shadow="0">
      <root>
        <mxCell id="0" />
        <mxCell id="1" parent="0" />
        <mxCell id="2c9xTj_Kh0-8FDqx4XBD-1" value="&lt;b&gt;Trích xuất dữ liệu từ Mediapipe&lt;/b&gt;" style="rounded=1;whiteSpace=wrap;html=1;" vertex="1" parent="1">
          <mxGeometry x="365" y="150" width="120" height="60" as="geometry" />
        </mxCell>
        <mxCell id="2c9xTj_Kh0-8FDqx4XBD-2" value="&lt;b&gt;Chuyển đổi từ&lt;br&gt;33 điểm -&amp;gt; 25 điểm&lt;br&gt;&lt;/b&gt;" style="rounded=1;whiteSpace=wrap;html=1;" vertex="1" parent="1">
          <mxGeometry x="365" y="250" width="120" height="60" as="geometry" />
        </mxCell>
        <mxCell id="2c9xTj_Kh0-8FDqx4XBD-3" value="&lt;b&gt;Chuẩn hóa&lt;/b&gt;" style="rounded=1;whiteSpace=wrap;html=1;" vertex="1" parent="1">
          <mxGeometry x="365" y="350" width="120" height="60" as="geometry" />
        </mxCell>
        <mxCell id="2c9xTj_Kh0-8FDqx4XBD-4" value="&lt;b&gt;Đệm và cắt&lt;/b&gt;" style="rounded=1;whiteSpace=wrap;html=1;" vertex="1" parent="1">
          <mxGeometry x="365" y="450" width="120" height="60" as="geometry" />
        </mxCell>
        <mxCell id="2c9xTj_Kh0-8FDqx4XBD-5" value="&lt;b&gt;Gán nhãn&lt;/b&gt;" style="rounded=1;whiteSpace=wrap;html=1;" vertex="1" parent="1">
          <mxGeometry x="365" y="550" width="120" height="60" as="geometry" />
        </mxCell>
        <mxCell id="2c9xTj_Kh0-8FDqx4XBD-6" value="" style="endArrow=classic;html=1;rounded=0;exitX=0.5;exitY=1;exitDx=0;exitDy=0;entryX=0.5;entryY=0;entryDx=0;entryDy=0;" edge="1" parent="1" source="2c9xTj_Kh0-8FDqx4XBD-1" target="2c9xTj_Kh0-8FDqx4XBD-2">
          <mxGeometry width="50" height="50" relative="1" as="geometry">
            <mxPoint x="400" y="420" as="sourcePoint" />
            <mxPoint x="450" y="370" as="targetPoint" />
          </mxGeometry>
        </mxCell>
        <mxCell id="2c9xTj_Kh0-8FDqx4XBD-7" value="" style="endArrow=classic;html=1;rounded=0;exitX=0.5;exitY=1;exitDx=0;exitDy=0;entryX=0.5;entryY=0;entryDx=0;entryDy=0;" edge="1" parent="1">
          <mxGeometry width="50" height="50" relative="1" as="geometry">
            <mxPoint x="424" y="310" as="sourcePoint" />
            <mxPoint x="424" y="350" as="targetPoint" />
          </mxGeometry>
        </mxCell>
        <mxCell id="2c9xTj_Kh0-8FDqx4XBD-8" value="" style="endArrow=classic;html=1;rounded=0;exitX=0.5;exitY=1;exitDx=0;exitDy=0;entryX=0.5;entryY=0;entryDx=0;entryDy=0;" edge="1" parent="1">
          <mxGeometry width="50" height="50" relative="1" as="geometry">
            <mxPoint x="425" y="410" as="sourcePoint" />
            <mxPoint x="425" y="450" as="targetPoint" />
          </mxGeometry>
        </mxCell>
        <mxCell id="2c9xTj_Kh0-8FDqx4XBD-9" value="" style="endArrow=classic;html=1;rounded=0;exitX=0.5;exitY=1;exitDx=0;exitDy=0;entryX=0.5;entryY=0;entryDx=0;entryDy=0;" edge="1" parent="1">
          <mxGeometry width="50" height="50" relative="1" as="geometry">
            <mxPoint x="424" y="510" as="sourcePoint" />
            <mxPoint x="424" y="550" as="targetPoint" />
          </mxGeometry>
        </mxCell>
      </root>
    </mxGraphModel>
  </diagram>
</mxfile>
